{"accessors" : [{"bufferView" : 0, "byteOffset" : 0, "componentType" : 5123, "count" : 738, "type" : "SCALAR", "max" : [737], "min" : [0]}, {"bufferView" : 1, "byteOffset" : 0, "componentType" : 5126, "count" : 738, "type" : "VEC3", "max" : [1.2322955131530762, 1.2615933418273926, 1.0517219305038452], "min" : [-1.2322955131530762, -1.2615933418273926, -1.0666414499282837], "name" : "POSITION"}, {"bufferView" : 1, "byteOffset" : 12, "componentType" : 5126, "count" : 738, "type" : "VEC3", "max" : [0.9816474914550781, 0.9798927903175354, 1.0000044107437134], "min" : [-0.9816474914550781, -0.9798927903175354, -1.0000044107437134], "name" : "NORMAL"}, {"bufferView" : 1, "byteOffset" : 24, "componentType" : 5126, "count" : 738, "type" : "VEC2", "max" : [1, -0.01000000536441803], "min" : [0.01000000536441803, -1], "name" : "TEXCOORD_0"}, {"bufferView" : 0, "byteOffset" : 1476, "componentType" : 5123, "count" : 684, "type" : "SCALAR", "max" : [683], "min" : [0]}, {"bufferView" : 2, "byteOffset" : 0, "componentType" : 5126, "count" : 684, "type" : "VEC3", "max" : [1.3150479793548584, 1.346313238143921, 0.44485485553741455], "min" : [-1.3150479793548584, -1.346313238143921, -0.4524720013141632], "name" : "POSITION"}, {"bufferView" : 2, "byteOffset" : 12, "componentType" : 5126, "count" : 684, "type" : "VEC3", "max" : [0.9666022658348083, 0.9911022186279297, 1.0000044107437134], "min" : [-0.9822248816490173, -0.9615192413330078, -1.0000044107437134], "name" : "NORMAL"}, {"bufferView" : 2, "byteOffset" : 24, "componentType" : 5126, "count" : 684, "type" : "VEC2", "max" : [1, -0.6368820071220398], "min" : [0, -0.861213743686676], "name" : "TEXCOORD_0"}, {"bufferView" : 0, "byteOffset" : 2844, "componentType" : 5123, "count" : 162, "type" : "SCALAR", "max" : [161], "min" : [0]}, {"bufferView" : 3, "byteOffset" : 0, "componentType" : 5126, "count" : 162, "type" : "VEC3", "max" : [1.2322955131530762, 1.2615933418273926, 1.0517219305038452], "min" : [-1.2322955131530762, -1.2615933418273926, -1.0666414499282837], "name" : "POSITION"}, {"bufferView" : 3, "byteOffset" : 12, "componentType" : 5126, "count" : 162, "type" : "VEC3", "max" : [0.9816474914550781, 0.9798927903175354, 0.3559151589870453], "min" : [-0.9816474914550781, -0.9798927903175354, -0.35164812207221985], "name" : "NORMAL"}, {"bufferView" : 3, "byteOffset" : 24, "componentType" : 5126, "count" : 162, "type" : "VEC2", "max" : [0.9375000596046448, -0.5], "min" : [0, -1], "name" : "TEXCOORD_0"}], "asset" : {"generator" : "Aspose.3D 23.9.0", "version" : "2.0"}, "buffers" : [{"uri" : "data:application/octet-stream;base64,", "byteLength" : 53872}], "bufferViews" : [{"buffer" : 0, "byteOffset" : 0, "byteLength" : 3168, "target" : 34963}, {"buffer" : 0, "byteOffset" : 3172, "byteLength" : 23616, "byteStride" : 32, "target" : 34962}, {"buffer" : 0, "byteOffset" : 26792, "byteLength" : 21888, "byteStride" : 32, "target" : 34962}, {"buffer" : 0, "byteOffset" : 48684, "byteLength" : 5184, "byteStride" : 32, "target" : 34962}], "materials" : [{"name" : "Material", "pbrMetallicRoughness" : {"baseColorFactor" : [0.15540215373039246, 0.0566309429705143, 0.010705152526497841, 1], "metallicFactor" : 0, "roughnessFactor" : 0}, "emissiveFactor" : [0, 0, 0], "alphaMode" : "OPAQUE", "doubleSided" : false}, {"name" : "Metal", "pbrMetallicRoughness" : {"baseColorFactor" : [0.48218244314193726, 0.48218244314193726, 0.48218244314193726, 1], "metallicFactor" : 0, "roughnessFactor" : 0}, "emissiveFactor" : [0, 0, 0], "alphaMode" : "OPAQUE", "doubleSided" : false}, {"name" : "Material.001", "pbrMetallicRoughness" : {"baseColorFactor" : [0.15540215373039246, 0.0566309429705143, 0.010705152526497841, 1], "metallicFactor" : 0, "roughnessFactor" : 0}, "emissiveFactor" : [0, 0, 0], "alphaMode" : "OPAQUE", "doubleSided" : false}], "meshes" : [{"primitives" : [{"attributes" : {"POSITION" : 1, "NORMAL" : 2, "TEXCOORD_0" : 3}, "indices" : 0, "material" : 0, "mode" : 4}, {"attributes" : {"POSITION" : 5, "NORMAL" : 6, "TEXCOORD_0" : 7}, "indices" : 4, "material" : 1, "mode" : 4}, {"attributes" : {"POSITION" : 9, "NORMAL" : 10, "TEXCOORD_0" : 11}, "indices" : 8, "material" : 2, "mode" : 4}], "name" : "Cylinder.001"}], "nodes" : [{"matrix" : [100, 0, 0, 0, 0, -1.6292067955264296E-05, -99.99999999999866, 0, 0, 99.99999999999866, -1.6292067955264296E-05, 0, 0, 0, 0, 1], "mesh" : 0, "name" : "Cylinder"}], "scene" : 0, "scenes" : [{"nodes" : [0]}]}